# xmcd
#
# Track frame offsets:
#	150
#	12845
#	23093
#	36224
#	52043
#	62739
#	73599
#	88000
#	100656
#	115161
#	125128
#	135323
#	147336
#	159145
#	170808
#	183450
#	195931
#	206335
#	219245
#	228616
#
# Disc length: 3172 seconds
#
# Revision: 1
# Processed by: cddbd v1.5.2PL0 Copyright (c) Steve Scherf et al.
# Submitted via: EasyCDDAExtractor 4.6.9.1
#
DISCID=140c6214
DTITLE=Verschiedene - American Roadsongs 10
DYEAR=2006
DGENRE=Blues
TTITLE0=Jenks Tex Carman - Hillbilly Hula
TTITLE1=Sons of the Pioneers - Hawaiian Lullaby
TTITLE2=Tommy Durdon - Hula Boogie
TTITLE3=Dinah Shore - For Away Places
TTITLE4=Lany McIntyre - Hula Chant
TTITLE5=Sons of the Pioneers - Blue Hawaii
TTITLE6=On The Old Hawaiian Shore With You
TTITLE7=Hank Penny - Hawaiian Honeymoon
TTITLE8=Gene Autrey - Blue Hawaii
TTITLE9=Laurel and Miles - Sweet Hawaii
TTITLE10=Jame Elmore and Brothers - Hawaiian Boogie
TTITLE11=Hank Snow - Bluebird Island
TTITLE12=Lany McIntyre - South Sea Moon
TTITLE13=Bob Wills - 'Neath Hawaiian Palms
TTITLE14=Cecil Campbell - Hawaiian Skies
TTITLE15=Tune Wranglers - Hawaiian Honeymoon
TTITLE16=Sons of the Pioneers - Stars Above Hawaii
TTITLE17=Jimmy Newman - Dreamland Island
TTITLE18=Bill Browning - Hula Rock
TTITLE19=Chuck Miller - Hopahula Boogie
EXTD=
EXTT0=
EXTT1=
EXTT2=
EXTT3=
EXTT4=
EXTT5=
EXTT6=
EXTT7=
EXTT8=
EXTT9=
EXTT10=
EXTT11=
EXTT12=
EXTT13=
EXTT14=
EXTT15=
EXTT16=
EXTT17=
EXTT18=
EXTT19=
PLAYORDER=
